PathFileType  4	(X/Y/Z) C:\Users\wagnerel85475\Documents\Thesis\opencap-core\Data\3375ffbc-daeb-4a43-b4f7-ac9899cd4c71\MarkerData\PreAugmentation
DataRate	CameraRate	NumFrames	NumMarkers	Units	OrigDataRate	OrigDataStartFrame	OrigNumFrames
60.0	60.0	18	20	m	60.0	252	403
Frame#	Time	Neck			RShoulder			RElbow			RWrist			LShoulder			LElbow			LWrist			midHip			RHip			RKnee			RAnkle			LHip			LKnee			LAnkle			LBigToe			LSmallToe			LHeel			RBigToe			RSmallToe			RHeel			
		X1	Y1	Z1	X2	Y2	Z2	X3	Y3	Z3	X4	Y4	Z4	X5	Y5	Z5	X6	Y6	Z6	X7	Y7	Z7	X8	Y8	Z8	X9	Y9	Z9	X10	Y10	Z10	X11	Y11	Z11	X12	Y12	Z12	X13	Y13	Z13	X14	Y14	Z14	X15	Y15	Z15	X16	Y16	Z16	X17	Y17	Z17	X18	Y18	Z18	X19	Y19	Z19	X20	Y20	Z20	

252	4.1833333	1.0948800	1.3014600	-0.0583100	1.0904300	1.3083800	0.1333400	0.9441300	1.0366100	0.2607100	0.8293100	0.7738400	0.3432400	1.1166000	1.2953800	-0.2509600	1.0065000	1.0126100	-0.3559000	0.9710000	0.7154900	-0.4490700	0.9839600	0.7577500	-0.0585700	0.9875700	0.7538600	0.0646200	1.1709400	0.3153500	0.1432300	0.9196000	-0.1754500	0.1545800	0.9816200	0.7581500	-0.1781100	1.1375500	0.3300400	-0.2823200	0.9024900	-0.1781500	-0.2892800	1.1024800	-0.2180100	-0.3686800	1.0439800	-0.2250400	-0.4008900	0.8428600	-0.2202700	-0.2780700	1.0710600	-0.2258200	0.2414000	1.0432200	-0.2209600	0.2571100	0.8612900	-0.2297100	0.1279600
253	4.2000000	1.1034300	1.2553400	-0.0553300	1.0981100	1.2572800	0.1300300	0.9558900	0.9851500	0.2632000	0.8384600	0.7207600	0.3459400	1.1251500	1.2563600	-0.2474600	1.0310100	0.9688600	-0.3666700	1.0057500	0.6737100	-0.4635600	0.9763900	0.7155600	-0.0538800	0.9958500	0.7136000	0.0674100	1.1651200	0.2864000	0.1479200	0.9213600	-0.1831900	0.1542400	0.9653100	0.7178900	-0.1845500	1.1520800	0.3150300	-0.2829400	0.8993900	-0.1633300	-0.2832600	1.0968800	-0.2201900	-0.3720300	1.0296000	-0.2259300	-0.4005400	0.8550700	-0.2028600	-0.2659600	1.0626000	-0.2353800	0.2453300	1.0105700	-0.2336600	0.2603800	0.8640600	-0.2408900	0.1282800
254	4.2166667	1.1117500	1.2073500	-0.0586300	1.1121200	1.2133500	0.1208200	0.9767200	0.9552900	0.2579500	0.8492900	0.6767400	0.3499000	1.1552500	1.2088900	-0.2471200	1.0552900	0.9275700	-0.3696400	1.0316600	0.6256200	-0.4661200	0.9772700	0.6834100	-0.0544900	0.9958000	0.6847100	0.0681900	1.1939600	0.2826900	0.1447300	0.9161900	-0.1995900	0.1447000	0.9657900	0.6862800	-0.1847000	1.1595500	0.2930200	-0.2922700	0.8986900	-0.1753300	-0.2840700	1.0956900	-0.2206300	-0.3722100	1.0360300	-0.2273300	-0.3962800	0.8473500	-0.2216200	-0.2607600	1.0725900	-0.2318100	0.2482800	1.0275300	-0.2277400	0.2587400	0.8774300	-0.2369900	0.1188200
255	4.2333333	1.1344200	1.1756200	-0.0561100	1.1190800	1.1869100	0.1174800	1.0029000	0.9145600	0.2508500	0.9080100	0.6287900	0.3645000	1.1710900	1.1675200	-0.2471900	1.0641500	0.8799600	-0.3730900	1.0568500	0.5766400	-0.4759900	0.9684000	0.6515100	-0.0574000	0.9787600	0.6520400	0.0609900	1.2024600	0.2764600	0.1480500	0.9055900	-0.2012300	0.1324100	0.9584100	0.6503800	-0.1809700	1.1669100	0.2771000	-0.2964200	0.9001000	-0.1847200	-0.2856300	1.0971000	-0.2201900	-0.3723600	1.0370700	-0.2258900	-0.4033100	0.8394600	-0.2442900	-0.2579700	1.0715800	-0.2323400	0.2480700	1.0268200	-0.2287300	0.2586500	0.8907000	-0.2216900	0.1000300
256	4.2500000	1.1506500	1.1475400	-0.0562900	1.1354200	1.1494300	0.1155700	1.0091800	0.8809200	0.2468800	0.9367500	0.5866800	0.3650000	1.1714900	1.1463700	-0.2469200	1.0741500	0.8435300	-0.3767900	1.1105100	0.5589700	-0.4693600	0.9526900	0.6328400	-0.0651300	0.9650000	0.6297900	0.0612800	1.2089200	0.2669700	0.1525800	0.9050000	-0.2041600	0.1332000	0.9502000	0.6311600	-0.1846900	1.1821600	0.2722800	-0.3029000	0.9071000	-0.1835300	-0.2823300	1.0961900	-0.2203500	-0.3793600	1.0363300	-0.2269600	-0.4033700	0.8473500	-0.2449700	-0.2536400	1.0727600	-0.2318000	0.2483500	1.0208700	-0.2306300	0.2630500	0.8982100	-0.2191900	0.0962600
257	4.2666667	1.1511100	1.1057900	-0.0567500	1.1432300	1.1108700	0.1194800	1.0359500	0.8468500	0.2476700	1.0056000	0.5523500	0.3625500	1.1730400	1.1074400	-0.2471000	1.0815800	0.8206000	-0.3726700	1.1475300	0.5365400	-0.4647600	0.9430400	0.6089800	-0.0594500	0.9452400	0.6103300	0.0630800	1.2157300	0.2630400	0.1488600	0.9147500	-0.2006700	0.1359500	0.9500500	0.6153500	-0.1833100	1.1944000	0.2700100	-0.3019900	0.9077800	-0.1820400	-0.2819000	1.0971100	-0.2202700	-0.3724300	1.0371600	-0.2257600	-0.4032300	0.8472100	-0.2351600	-0.2527800	1.0712700	-0.2323500	0.2481400	1.0192800	-0.2340700	0.2635900	0.8985000	-0.2192200	0.0957700
258	4.2833333	1.1662500	1.0915500	-0.0569700	1.1444700	1.0929600	0.1185500	1.0614000	0.8225000	0.2565500	1.0396000	0.5185400	0.3588300	1.1870000	1.0872300	-0.2467900	1.1138400	0.7928200	-0.3853300	1.1713300	0.4984300	-0.4661200	0.9371800	0.5885500	-0.0574100	0.9329000	0.5867100	0.0711400	1.2151800	0.2623700	0.1487000	0.9137500	-0.2010500	0.1361400	0.9348300	0.5895000	-0.1847800	1.1959500	0.2674100	-0.3025100	0.9071800	-0.1831800	-0.2822600	1.0956600	-0.2207600	-0.3725000	1.0366100	-0.2303200	-0.4037500	0.8390900	-0.2354400	-0.2488400	1.0725200	-0.2318700	0.2484600	1.0206500	-0.2306100	0.2630600	0.8985000	-0.2216500	0.0968600
259	4.3000000	1.1661900	1.0565900	-0.0573100	1.1438700	1.0542000	0.1194600	1.0798700	0.7949500	0.2620600	1.0708600	0.4965200	0.3628200	1.1881900	1.0583600	-0.2468200	1.1213900	0.7720500	-0.3898900	1.2205800	0.4899300	-0.4606000	0.9198500	0.5789600	-0.0556900	0.9148800	0.5773900	0.0718800	1.2079400	0.2643200	0.1463300	0.9147800	-0.2008300	0.1360300	0.9262900	0.5813200	-0.1803100	1.1881800	0.2647400	-0.3061100	0.9072500	-0.1784800	-0.2812600	1.0970000	-0.2203700	-0.3723700	1.0374200	-0.2319900	-0.4031500	0.8391800	-0.2352700	-0.2486000	1.0712800	-0.2321700	0.2481500	1.0196600	-0.2307300	0.2629500	0.8914900	-0.2246000	0.1006600
260	4.3166667	1.1810200	1.0393600	-0.0648200	1.1594400	1.0437900	0.1175500	1.0797600	0.7768000	0.2623000	1.1225100	0.4922200	0.3722100	1.1885000	1.0379700	-0.2467800	1.1445000	0.7485000	-0.3922500	1.2628500	0.4665500	-0.4508000	0.9036600	0.5723300	-0.0555400	0.8976900	0.5740800	0.0658900	1.2151900	0.2686700	0.1486000	0.9137400	-0.2012300	0.1362300	0.9181400	0.5762600	-0.1766900	1.1960000	0.2710900	-0.3088900	0.9066200	-0.1796800	-0.2816800	1.0956900	-0.2207600	-0.3725300	1.0368300	-0.2297100	-0.4026100	0.8475500	-0.2296400	-0.2518200	1.0725300	-0.2317700	0.2483900	1.0203600	-0.2333700	0.2637300	0.8836400	-0.2301500	0.1060200
261	4.3333333	1.1871500	1.0218200	-0.0687900	1.1742100	1.0250700	0.1171300	1.0903100	0.7486700	0.2645700	1.1509900	0.4657800	0.3597000	1.1894200	1.0159100	-0.2467600	1.1736100	0.7355400	-0.3770900	1.2830100	0.4623000	-0.4469100	0.8858700	0.5695700	-0.0540500	0.8862500	0.5682600	0.0624400	1.2159100	0.2694400	0.1488100	0.9146300	-0.2007200	0.1360800	0.9016100	0.5699200	-0.1760100	1.1873400	0.2681900	-0.3059100	0.9069800	-0.1714100	-0.2801200	1.0899900	-0.2231200	-0.3759000	1.0374300	-0.2288700	-0.4026900	0.8480200	-0.2290600	-0.2516300	1.0714700	-0.2323100	0.2480900	1.0260300	-0.2342200	0.2599800	0.8907400	-0.2217100	0.1001200
262	4.3500000	1.1882400	1.0038800	-0.0686500	1.1822400	1.0015700	0.1119200	1.1033000	0.7406900	0.2639900	1.2102300	0.4704600	0.3532000	1.1820700	1.0104300	-0.2501800	1.1881500	0.7314500	-0.3689500	1.3297000	0.4659700	-0.4321800	0.8788400	0.5604800	-0.0508200	0.8719700	0.5608100	0.0634000	1.2235800	0.2765300	0.1507400	0.9066000	-0.2037500	0.1403500	0.8936300	0.5648000	-0.1722200	1.1526500	0.2626800	-0.3318400	0.9062600	-0.1692800	-0.2798100	1.0887500	-0.2234100	-0.3760400	1.0369600	-0.2298500	-0.4026400	0.8568100	-0.2232300	-0.2474900	1.0641500	-0.2314500	0.2463500	1.0275100	-0.2309700	0.2593000	0.8905700	-0.2242100	0.1011600
263	4.3666667	1.1883900	0.9945400	-0.0690900	1.1899700	0.9952600	0.1157300	1.1410200	0.7296700	0.2733400	1.2430500	0.4587800	0.3625400	1.1898900	0.9989700	-0.2468200	1.1957000	0.7222000	-0.3726300	1.3566300	0.4578100	-0.4372900	0.8679900	0.5529300	-0.0524700	0.8610600	0.5527900	0.0681400	1.2261400	0.2798000	0.1571400	0.9145300	-0.2007500	0.1360900	0.8850800	0.5572000	-0.1671400	1.1445900	0.2633800	-0.3361600	0.9069500	-0.1713500	-0.2800700	1.0900000	-0.2230500	-0.3758900	1.0374400	-0.2287900	-0.4026800	0.8565200	-0.2258700	-0.2478400	1.0716800	-0.2322300	0.2481200	1.0352100	-0.2279000	0.2619100	0.8906900	-0.2216700	0.1000500
264	4.3833333	1.1892700	0.9867600	-0.0687300	1.1970100	0.9887800	0.1109000	1.1476000	0.7093400	0.2769500	1.2642900	0.4522800	0.3576800	1.1897600	0.9853300	-0.2465700	1.2038300	0.7011700	-0.3694800	1.3833100	0.4442100	-0.4370900	0.8518200	0.5429500	-0.0523000	0.8519000	0.5448100	0.0660400	1.2129400	0.2752900	0.1651500	0.9066100	-0.2038000	0.1403100	0.8774000	0.5483900	-0.1708000	1.1601500	0.2708800	-0.3292300	0.9068300	-0.1796200	-0.2817100	1.0956700	-0.2206800	-0.3724900	1.0369300	-0.2293700	-0.4026300	0.8559200	-0.2290500	-0.2487700	1.0724300	-0.2318700	0.2482900	1.0272200	-0.2307600	0.2594000	0.8906500	-0.2244200	0.1011500
265	4.4000000	1.1887600	0.9846800	-0.0689300	1.1966400	0.9889500	0.1116500	1.1573200	0.7020200	0.2792700	1.3248300	0.4586900	0.3452200	1.1905500	0.9727400	-0.2467200	1.2182400	0.6868300	-0.3757900	1.4021300	0.4461600	-0.4274600	0.8589000	0.5449500	-0.0556200	0.8583300	0.5462200	0.0613200	1.2008400	0.2784300	0.1735500	0.9072800	-0.2038300	0.1402900	0.8769000	0.5488100	-0.1779000	1.1660700	0.2728400	-0.3255600	0.9073300	-0.1781400	-0.2813000	1.0969400	-0.2204000	-0.3722800	1.0377100	-0.2286000	-0.4026000	0.8562500	-0.2260400	-0.2478700	1.0711100	-0.2324000	0.2481700	1.0191500	-0.2344600	0.2637100	0.8843200	-0.2320500	0.1061100
266	4.4166667	1.1892200	0.9743600	-0.0683500	1.1902400	0.9787700	0.1150800	1.1707300	0.7026000	0.2781500	1.3474000	0.4667800	0.3460400	1.1903300	0.9648400	-0.2466000	1.2250800	0.6915300	-0.3717200	1.4209300	0.4470300	-0.4225500	0.8503200	0.5426700	-0.0599500	0.8588400	0.5432800	0.0620500	1.1886900	0.2733800	0.1806300	0.9065500	-0.2039100	0.1403400	0.8438200	0.5384600	-0.1855100	1.1671700	0.2700200	-0.3250800	0.9068300	-0.1796500	-0.2816800	1.0956300	-0.2206900	-0.3724400	1.0370000	-0.2294300	-0.4026000	0.8558300	-0.2291300	-0.2487600	1.0635800	-0.2353100	0.2458400	1.0050700	-0.2369100	0.2647900	0.8912500	-0.2249600	0.1009800
267	4.4333333	1.1887000	0.9688400	-0.0687600	1.1962300	0.9797800	0.1117200	1.1858300	0.7014900	0.2689400	1.3604700	0.4667900	0.3440600	1.1906800	0.9561200	-0.2468800	1.2393600	0.6871000	-0.3713800	1.4329800	0.4500800	-0.4222900	0.8410100	0.5385700	-0.0623200	0.8572200	0.5432500	0.0616300	1.1809400	0.2722400	0.1782600	0.9072900	-0.2038100	0.1402200	0.8429600	0.5389400	-0.1927300	1.1661700	0.2661400	-0.3254600	0.9077500	-0.1817700	-0.2820000	1.0971100	-0.2201500	-0.3723100	1.0376900	-0.2283700	-0.4026700	0.8478000	-0.2321800	-0.2521900	1.0625000	-0.2356300	0.2456900	1.0126400	-0.2340500	0.2673500	0.8991600	-0.2221000	0.0964500
268	4.4500000	1.1893600	0.9677500	-0.0683800	1.1968600	0.9794200	0.1109500	1.1970600	0.7028200	0.2609000	1.3933900	0.4773500	0.3367800	1.1903200	0.9517800	-0.2468800	1.2604300	0.6909000	-0.3740100	1.4468400	0.4497000	-0.4284900	0.8414100	0.5383100	-0.0633600	0.8498200	0.5416900	0.0587200	1.1716400	0.2651300	0.1842300	0.9047600	-0.2013500	0.1326600	0.8429200	0.5391300	-0.1934500	1.1600800	0.2615900	-0.3215700	0.9072100	-0.1829700	-0.2824000	1.0957500	-0.2206600	-0.3724400	1.0370700	-0.2293100	-0.4026500	0.8477400	-0.2323400	-0.2523800	1.0722600	-0.2318700	0.2483200	1.0207700	-0.2305200	0.2630200	0.8985600	-0.2172900	0.0954400
269	4.4666667	1.1887400	0.9687400	-0.0687600	1.1966500	0.9826800	0.1115800	1.2216300	0.7104900	0.2610700	1.4242900	0.4940400	0.3296000	1.1910300	0.9495600	-0.2471200	1.2737900	0.6927400	-0.3667000	1.4460100	0.4594800	-0.4215300	0.8406700	0.5418600	-0.0627700	0.8487800	0.5417300	0.0583300	1.1703400	0.2657000	0.1775500	0.9054600	-0.2010900	0.1325500	0.8428300	0.5394300	-0.1927700	1.1588500	0.2604900	-0.3216100	0.9077400	-0.1818000	-0.2820400	1.0970900	-0.2201600	-0.3722100	1.0377600	-0.2283700	-0.4026300	0.8476200	-0.2350800	-0.2528500	1.0716900	-0.2321700	0.2480500	1.0354700	-0.2251300	0.2612400	0.8984300	-0.2169700	0.0951300
